<?xml version="1.0" encoding="UTF-8"?>
<!-- Created with Inkscape (http://www.inkscape.org/) -->
<svg width="587.29" height="587.29" version="1.0" xmlns="http://www.w3.org/2000/svg" xmlns:cc="http://creativecommons.org/ns#" xmlns:dc="http://purl.org/dc/elements/1.1/" xmlns:rdf="http://www.w3.org/1999/02/22-rdf-syntax-ns#">
 <metadata>
  <rdf:RDF>
   <cc:Work rdf:about="">
    <dc:format>image/svg+xml</dc:format>
    <dc:type rdf:resource="http://purl.org/dc/dcmitype/StillImage"/>
    <dc:title/>
   </cc:Work>
  </rdf:RDF>
 </metadata>
 <path d="m293.64 0a293.64 293.64 0 0 0-293.64 293.64 293.64 293.64 0 0 0 293.64 293.64 293.64 293.64 0 0 0 293.64-293.64 293.64 293.64 0 0 0-293.64-293.64zm99.979 101.81 91.861 91.861-269.73 269.74-110.63 18.76 18.094-106.7 0.66602-3.9297zm0 35.355-238.67 238.66 19.357 19.357 238.67-238.66zm37.035 37.035-238.67 238.66 19.477 19.477 238.66-238.67zm-286.34 226.35-5.4238 31.982 16.357 15.785 31.494-5.3398z" color="#000000" color-rendering="auto" dominant-baseline="auto" fill="#fff" image-rendering="auto" shape-rendering="auto" solid-color="#000000" style="font-feature-settings:normal;font-variant-alternates:normal;font-variant-caps:normal;font-variant-ligatures:normal;font-variant-numeric:normal;font-variant-position:normal;isolation:auto;mix-blend-mode:normal;shape-padding:0;text-decoration-color:#000000;text-decoration-line:none;text-decoration-style:solid;text-indent:0;text-orientation:mixed;text-transform:none;white-space:normal"/>
</svg>
