<?xml version="1.0" encoding="UTF-8"?>
<!-- Created with Inkscape (http://www.inkscape.org/) -->
<svg width="252.19mm" height="252.2mm" version="1.1" viewBox="0 0 252.19 252.2" xmlns="http://www.w3.org/2000/svg" xmlns:cc="http://creativecommons.org/ns#" xmlns:dc="http://purl.org/dc/elements/1.1/" xmlns:rdf="http://www.w3.org/1999/02/22-rdf-syntax-ns#">
 <metadata>
  <rdf:RDF>
   <cc:Work rdf:about="">
    <dc:format>image/svg+xml</dc:format>
    <dc:type rdf:resource="http://purl.org/dc/dcmitype/StillImage"/>
    <dc:title/>
   </cc:Work>
  </rdf:RDF>
 </metadata>
 <g transform="translate(26.134 -11.876)">
  <path transform="matrix(.26458 0 0 .26458 -26.134 11.876)" d="m475.41 0.0019531c-8.78-0.019375-17.559 0.24578-26.324 0.92578-61.587 2.6933-122.84 17.36-178.36 44.32-53.653 25.733-101.6 62.532-142.32 105.79-28.213 29.893-53.092 63.082-72.799 99.215-23.08 41.6-38.815 87.132-47.521 133.87-2.5733 16.213-5.1193 32.48-6.5859 48.84-1.8667 18.907-1.4664 37.921-1.4531 56.895-0.039999 21.4 2.5732 42.693 5.1465 63.92 2.8667 18.373 7.2401 36.479 11.773 54.506 5.76 20.4 13.039 40.346 21.359 59.84 18.92 43.213 44.907 83.214 75.92 118.72 28.92 32.973 61.628 62.76 97.881 87.48 37.213 25.493 78.279 45.293 121.43 58.453 21.84 6.1333 43.841 12.159 66.428 14.945 84.053 11.867 171.68 4.9876 251.09-26.039 77.733-30.187 145.27-83.226 197.97-147.37 29.36-36.093 53.8-76.374 70.84-119.71 20.08-49.08 30.44-101.87 32.293-154.79 0.61327-10.413 1.2808-20.839 0.80079-31.279-0.94666-15.587-1.3067-31.213-3-46.746-6.8133-72.453-32.066-143.03-72.293-203.65-24.933-37.68-55.215-71.747-89.068-101.63-34.067-30.013-72.198-55.613-113.54-74.506-48.92-22.787-102.13-35.601-155.8-40.121-14.592-1.0167-29.23-1.8388-43.863-1.8711zm-22.193 264.9c6.3029 0.06367 12.566 0.63033 18.391 3.2637 10.28 4.0133 17.454 12.705 25.094 20.252 63.773 63.773 127.53 127.57 191.33 191.32 8.6933 8.5467 14.308 20.467 13.961 32.787 0.24 11.973-5.0938 23.561-13.48 31.947-52.453 52.413-104.88 104.88-157.32 157.31-10.88 10.96-27.519 15.707-42.506 11.84-8.64-2.0933-16.307-7.0934-22.494-13.387-66.787-66.987-133.76-133.79-200.63-200.71-8.5067-8.4533-13.934-20.147-13.787-32.24 0.0799-52.507 0.067-105.01 0.01368-157.51-0.34667-21.187 16.414-41.04 37.334-44.307 7.3333-0.93334 14.746-0.41347 22.119-0.4668 43.56-0.01323 87.108 0.01317 130.67-0.01367 3.725 0.015 7.521-0.12805 11.303-0.08984zm-122.24 44.766c-2.8679-0.02754-5.7365 0.2974-8.5156 0.97656-11.093 2.7733-20.361 11.521-24.107 22.281-3.7333 11.653-0.8675 25.24 7.8125 33.986 11.08 12.24 31.548 13.76 44.602 3.8535 8.68-6.2667 13.959-16.868 13.572-27.574 0.42667-11.347-6.0801-22.174-15.467-28.24-5.2892-3.4558-11.587-5.2226-17.896-5.2832z" fill="#fff"/>
 </g>
</svg>
