<?xml version="1.0" encoding="UTF-8" standalone="no"?>
<!-- Created with Inkscape (http://www.inkscape.org/) -->

<svg
   xmlns:dc="http://purl.org/dc/elements/1.1/"
   xmlns:cc="http://creativecommons.org/ns#"
   xmlns:rdf="http://www.w3.org/1999/02/22-rdf-syntax-ns#"
   xmlns:svg="http://www.w3.org/2000/svg"
   xmlns="http://www.w3.org/2000/svg"
   xmlns:sodipodi="http://sodipodi.sourceforge.net/DTD/sodipodi-0.dtd"
   xmlns:inkscape="http://www.inkscape.org/namespaces/inkscape"
   width="252.18558mm"
   height="252.19696mm"
   viewBox="0 0 252.18558 252.19696"
   version="1.1"
   id="svg8"
   inkscape:version="0.92.3 (2405546, 2018-03-11)"
   sodipodi:docname="untag.svg">
  <defs
     id="defs2" />
  <sodipodi:namedview
     id="base"
     pagecolor="#ffffff"
     bordercolor="#666666"
     borderopacity="1.0"
     inkscape:pageopacity="0.0"
     inkscape:pageshadow="2"
     inkscape:zoom="0.7"
     inkscape:cx="402.06666"
     inkscape:cy="471.79607"
     inkscape:document-units="mm"
     inkscape:current-layer="layer1"
     showgrid="false"
     inkscape:window-width="1920"
     inkscape:window-height="1000"
     inkscape:window-x="-9"
     inkscape:window-y="-9"
     inkscape:window-maximized="1" />
  <metadata
     id="metadata5">
    <rdf:RDF>
      <cc:Work
         rdf:about="">
        <dc:format>image/svg+xml</dc:format>
        <dc:type
           rdf:resource="http://purl.org/dc/dcmitype/StillImage" />
        <dc:title></dc:title>
      </cc:Work>
    </rdf:RDF>
  </metadata>
  <g
     inkscape:label="Layer 1"
     inkscape:groupmode="layer"
     id="layer1"
     transform="translate(26.133939,-11.876173)">
    <path
       style="opacity:1;fill:#ffffff;fill-opacity:1;stroke:none;stroke-width:1.33333337"
       d="m 475.4082,0.00195313 c -8.78,-0.0193753 -17.55921,0.24578093 -26.32422,0.92578125 C 387.49733,3.6210673 326.24461,18.288049 270.72461,45.248047 217.07128,70.98138 169.1243,107.77987 128.4043,151.0332 c -28.21334,29.89333 -53.092167,63.08152 -72.798831,99.21485 -23.080003,41.6 -38.814818,87.1319 -47.5214846,133.86523 -2.5733329,16.21334 -5.119273,32.47987 -6.5859375,48.83984 -1.86666711,18.90668 -1.46635337,37.92119 -1.45312503,56.89454 -0.03999873,21.39998 2.57315153,42.69326 5.14648433,63.91992 2.8666659,18.37334 7.2401018,36.47917 11.7734378,54.50586 5.76,20.4 13.039372,40.34647 21.359375,59.83984 18.919997,43.21331 44.90659,83.21405 75.919921,118.7207 28.92,32.97332 61.62753,62.76047 97.88086,87.48047 37.21333,25.49333 78.27911,45.29312 121.42578,58.45313 21.84,6.1333 43.84107,12.15866 66.42774,14.94531 84.0533,11.8667 171.68043,4.98761 251.09375,-26.03906 77.73334,-30.18663 145.26597,-83.22638 197.97265,-147.37305 29.35998,-36.09335 53.79985,-76.37369 70.83985,-119.70703 20.07998,-49.08 30.43964,-101.86711 32.29296,-154.78711 0.61327,-10.41335 1.28079,-20.8393 0.80079,-31.2793 -0.94666,-15.58665 -1.30666,-31.21276 -3,-46.74609 C 943.1652,349.32793 917.91223,278.75362 877.68555,218.12695 852.75223,180.44695 822.47053,146.38 788.61719,116.5 754.55053,86.48667 716.41894,60.887473 675.07227,41.994141 626.15229,19.207475 572.93817,6.393048 519.27148,1.8730469 504.67982,0.8563823 490.04153,0.03424528 475.4082,0.00195313 Z M 705.71289,196.86328 758.86328,250.61133 608.02734,399.75781 c 26.66433,26.66525 53.32925,53.33006 80.00391,79.98242 8.69333,8.54669 14.30752,20.4671 13.96094,32.78711 0.24,11.97332 -5.09378,23.56061 -13.48047,31.94727 -52.45331,52.41335 -104.88031,104.87998 -157.32031,157.30664 -10.87998,10.96003 -27.5192,15.70653 -42.50586,11.83984 -8.64,-2.09333 -16.30748,-7.09341 -22.49414,-13.38671 C 439.37728,673.33996 412.5292,646.47916 385.67383,619.625 L 247.42969,756.32227 194.28125,702.57617 332.22461,566.17578 c -22.22297,-22.21267 -44.45001,-44.42057 -66.66016,-66.64844 -8.50666,-8.45333 -13.93379,-20.14691 -13.78711,-32.24023 0.0799,-52.50667 0.067,-105.01253 0.0137,-157.50586 -0.34667,-21.18667 16.41398,-41.03998 37.33398,-44.30664 7.33333,-0.93334 14.74581,-0.41347 22.11914,-0.4668 43.56,-0.0132 87.10797,0.0132 130.66797,-0.0137 3.725,0.015 7.52102,-0.12805 11.30273,-0.0898 6.30287,0.0637 12.56563,0.63033 18.39063,3.26367 10.28,4.01333 17.45377,12.70529 25.09375,20.25195 19.29365,19.29365 38.58638,38.59036 57.8789,57.88672 z M 330.97461,309.66992 c -2.86787,-0.0275 -5.73646,0.2974 -8.51563,0.97656 -11.09333,2.77334 -20.36075,11.52125 -24.10742,22.28125 -3.73333,11.65334 -0.8675,25.23967 7.8125,33.98633 11.08,12.24 31.54825,13.76015 44.60156,3.85352 8.68,-6.26669 13.95894,-16.86754 13.57227,-27.57422 0.42667,-11.34666 -6.08013,-22.17357 -15.4668,-28.24024 -5.28916,-3.45581 -11.58716,-5.22261 -17.89648,-5.2832 z"
       id="path859"
       transform="matrix(0.26458333,0,0,0.26458333,-26.133961,11.875917)"
       inkscape:connector-curvature="0" />
  </g>
</svg>
